<?xml version="1.0" encoding="UTF-8" standalone="no"?><!DOCTYPE svg PUBLIC "-//W3C//DTD SVG 1.1//EN" "http://www.w3.org/Graphics/SVG/1.1/DTD/svg11.dtd"><svg width="100%" height="100%" viewBox="0 0 400 400" version="1.1" xmlns="http://www.w3.org/2000/svg" xmlns:xlink="http://www.w3.org/1999/xlink" xml:space="preserve" xmlns:serif="http://www.serif.com/" style="fill-rule:evenodd;clip-rule:evenodd;stroke-linecap:round;stroke-linejoin:round;stroke-miterlimit:1.5;"><path d="M209.548,95.021c-55.7,-29.073 -107.964,13.652 -109.724,44.234c-0.932,16.195 5.867,69.355 9.388,92.291c3.52,22.937 2.934,73.724 9.975,84.1c7.041,10.376 72.758,0 130.554,-38.227c57.796,-38.227 78.919,-59.525 72.465,-74.27c-6.455,-14.745 -36.966,-32.22 -52.809,-49.149c-14.212,-15.187 -30.268,-43.539 -59.849,-58.979Z" style="fill:none;stroke:#ffed00;stroke-width:9.3px;"/><path d="M205.648,94.241c-55.699,-29.073 -107.964,13.652 -109.724,44.234c-0.932,16.195 5.868,69.355 9.388,92.291c3.521,22.937 2.934,73.724 9.975,84.1c7.041,10.376 72.758,0 130.554,-38.227c57.796,-38.227 78.919,-59.525 72.465,-74.27c-6.454,-14.745 -36.966,-32.22 -52.808,-49.149c-14.212,-15.187 -30.269,-43.539 -59.85,-58.979Z" style="fill:none;stroke:#ffe500;stroke-width:9.3px;"/><path d="M322.206,203.149c-34.032,-19.114 -218.862,83.554 -203.019,112.497" style="fill:none;stroke:#ffd000;stroke-width:9.3px;"/><path d="M317.425,199.149c-34.032,-19.114 -218.862,83.554 -203.019,112.497" style="fill:none;stroke:#ffeb00;stroke-width:9.3px;"/><path d="M119.786,317.191c34.032,19.114 218.861,-83.554 203.019,-112.497" style="fill:none;stroke:#ffd000;stroke-width:9.3px;"/><path d="M249.728,258.337c-39.626,-1.119 -45.626,5.588 -53.573,30.272c-6.737,20.926 23.886,43.908 39.179,41.864c15.242,-2.038 36.518,-14.645 40.482,-30.142c4.498,-17.583 -10.783,-41.562 -26.088,-41.994Z" style="fill:#fff;stroke:#ffac00;stroke-width:9.3px;"/><path d="M246.728,253.337c-39.626,-1.119 -45.626,5.588 -53.573,30.272c-6.737,20.926 23.886,43.908 39.179,41.864c15.242,-2.038 36.518,-14.645 40.482,-30.142c4.498,-17.583 -10.783,-41.562 -26.088,-41.994Z" style="fill:#fff;stroke:#ffdc00;stroke-width:9.3px;"/><path d="M139.723,90.556c-1.606,-14.951 8.802,-19.66 18.777,-19.114c9.975,0.546 -18.19,24.575 -18.777,19.114Z" style="fill:none;stroke:#ffbf00;stroke-width:9.3px;"/><path d="M137.723,88.556c-1.606,-14.951 8.802,-19.66 18.777,-19.114c9.975,0.546 -18.19,24.575 -18.777,19.114Z" style="fill:none;stroke:#ffdb00;stroke-width:9.3px;"/><path d="M134.48,94.151c-5.43,-14.149 -17.002,-14.254 -25.764,-9.784c-8.762,4.471 27.748,14.953 25.764,9.784Z" style="fill:none;stroke:#ffd900;stroke-width:9.3px;"/><path d="M139.48,91.151c-5.43,-14.149 -17.002,-14.254 -25.764,-9.784c-8.762,4.471 27.748,14.953 25.764,9.784Z" style="fill:none;stroke:#ffe500;stroke-width:9.3px;"/></svg>